<?xml version="1.0" standalone="no"?>
<!DOCTYPE svg PUBLIC "-//W3C//DTD SVG 20010904//EN"
 "http://www.w3.org/TR/2001/REC-SVG-20010904/DTD/svg10.dtd">
<svg version="1.0" xmlns="http://www.w3.org/2000/svg"
 width="512.000000pt" height="512.000000pt" viewBox="0 0 512.000000 512.000000"
 preserveAspectRatio="xMidYMid meet">
<metadata>
Created by potrace 1.14, written by Peter Selinger 2001-2017
</metadata>
<g transform="translate(0.000000,512.000000) scale(0.100000,-0.100000)"
fill="#000000" stroke="none">
<path d="M2320 5110 c-491 -47 -981 -247 -1365 -557 -129 -104 -340 -321 -433
-445 -274 -365 -443 -782 -504 -1238 -16 -123 -16 -509 0 -625 65 -459 233
-873 501 -1230 92 -122 304 -341 426 -440 368 -299 822 -493 1305 -557 123
-16 509 -16 625 0 459 65 873 233 1230 501 122 92 341 304 440 426 299 368
493 822 557 1305 16 123 16 509 0 625 -65 459 -233 873 -501 1230 -92 122
-304 341 -426 440 -365 297 -826 494 -1295 555 -115 15 -443 21 -560 10z m318
-1020 c218 -19 386 -67 587 -166 136 -67 270 -156 361 -242 63 -60 71 -96 29
-137 -43 -44 -86 -33 -173 46 -75 68 -203 151 -313 203 -708 334 -1554 52
-1898 -633 -95 -187 -141 -385 -141 -601 0 -154 20 -283 65 -417 268 -802
1194 -1186 1972 -818 464 219 769 664 790 1153 5 121 4 132 -12 132 -29 0 -86
32 -121 68 -85 88 -84 229 2 316 98 97 249 96 345 -3 90 -93 91 -212 4 -310
l-42 -46 -6 -130 c-10 -223 -56 -402 -157 -610 -75 -155 -161 -275 -285 -400
-385 -385 -951 -551 -1480 -435 -140 31 -239 66 -380 136 -439 216 -741 608
-837 1087 -29 144 -31 393 -5 534 114 621 594 1108 1224 1243 172 37 301 45
471 30z m-238 -918 c19 -9 45 -32 57 -51 l23 -34 0 -668 0 -668 -22 -21 c-31
-28 -83 -26 -113 5 l-25 24 0 636 0 635 -319 0 -320 0 -27 23 c-20 17 -27 33
-27 57 0 24 7 40 27 57 l27 23 342 0 c306 0 346 -2 377 -18z m994 -3 c20 -16
26 -29 26 -59 0 -30 -6 -43 -26 -59 -26 -20 -38 -21 -345 -21 l-319 0 0 -635
0 -636 -25 -24 c-26 -26 -72 -33 -105 -15 -38 20 -40 53 -40 699 1 660 2 673
47 723 40 45 59 47 419 48 330 0 342 -1 368 -21z"/>
<path d="M3914 2887 c-17 -15 -26 -33 -26 -52 0 -32 41 -75 71 -75 10 0 30 9
45 21 36 28 36 80 0 108 -34 27 -57 26 -90 -2z"/>
</g>
</svg>
